<?xml version="1.0" standalone="no"?>
<!DOCTYPE svg PUBLIC "-//W3C//DTD SVG 20010904//EN"
 "http://www.w3.org/TR/2001/REC-SVG-20010904/DTD/svg10.dtd">
<svg version="1.0" xmlns="http://www.w3.org/2000/svg"
 width="700.000000pt" height="700.000000pt" viewBox="0 0 700.000000 700.000000"
 preserveAspectRatio="xMidYMid meet">
<metadata>
Created by potrace 1.11, written by Peter Selinger 2001-2013
</metadata>
<g transform="translate(0.000000,700.000000) scale(0.100000,-0.100000)"
fill="#000000" stroke="none">
<path d="M1255 6993 c-179 -23 -313 -62 -461 -133 -396 -187 -665 -533 -766
-981 l-23 -104 0 -2275 0 -2275 23 -104 c71 -315 218 -569 445 -769 183 -162
396 -268 650 -324 l102 -23 2275 0 2275 0 102 23 c565 125 970 530 1095 1095
l23 102 0 2275 0 2275 -23 102 c-125 566 -527 969 -1092 1096 l-95 21 -2250 2
c-1237 1 -2263 -1 -2280 -3z m2595 -1068 c709 -109 1311 -493 1699 -1084 389
-593 501 -1332 306 -2012 -245 -852 -915 -1496 -1776 -1708 -404 -99 -836 -93
-1233 19 -786 221 -1399 800 -1665 1572 -91 268 -126 481 -125 788 0 243 13
367 59 560 225 936 962 1652 1895 1840 83 17 135 24 300 44 77 9 440 -4 540
-19z"/>
</g>
</svg>
